<svg width="331" height="182" viewBox="0 0 331 182" fill="none" xmlns="http://www.w3.org/2000/svg">
<path d="M2.37554 8.0578L0.506175 7.71792V7.20809H4.58479C5.78571 7.20809 6.77138 7.48 7.54178 8.02381C8.31219 8.56763 8.856 9.25873 9.17323 10.0971L14.3055 23.1827L17.2965 14.4136L14.7813 8.0578L12.912 7.71792V7.20809H16.9906C18.1915 7.20809 19.1658 7.48 19.9136 8.02381C20.6613 8.54497 21.2165 9.23607 21.579 10.0971L26.7113 23.1827L31.6056 8.73757L29.0565 7.71792V7.20809H35.3443V7.71792L32.6253 8.73757L24.9779 31.3399H23.9582L17.8403 15.8072L12.5721 31.3399H11.5524L2.37554 8.0578ZM43.5201 31.5098C40.6198 31.5098 38.3652 30.7168 36.7564 29.1306C35.1477 27.5218 34.3433 25.3126 34.3433 22.5029C34.3433 20.6675 34.6945 19.0701 35.3969 17.7105C36.0993 16.351 37.0737 15.3087 38.3199 14.5836C39.5888 13.8585 41.039 13.496 42.6704 13.496C44.3019 13.496 45.7294 13.8018 46.953 14.4136C48.1992 15.0254 49.1509 15.8525 49.808 16.8948C50.4878 17.9145 50.8277 19.0474 50.8277 20.2936C50.8277 20.8601 50.771 21.3473 50.6577 21.7551L50.4878 22.3329C49.5134 22.5369 48.4598 22.7068 47.3268 22.8428C44.9477 23.1827 42.5458 23.3526 40.1213 23.3526C40.1213 25.981 40.4838 27.8617 41.2089 28.9947C41.934 30.105 42.931 30.6601 44.1999 30.6601C45.0836 30.6601 45.8993 30.4562 46.6471 30.0483C47.4175 29.6178 48.0179 29.0627 48.4485 28.3829C48.9016 27.6805 49.1282 26.9667 49.1282 26.2416H49.9779C49.9779 27.148 49.706 28.009 49.1622 28.8247C48.6184 29.6405 47.8593 30.2976 46.885 30.7961C45.9107 31.2719 44.789 31.5098 43.5201 31.5098ZM40.1213 22.5029C41.5715 22.5029 42.7497 22.4462 43.6561 22.3329C44.0413 22.3103 44.4492 22.2536 44.8797 22.163C44.9023 22.0497 44.959 21.8005 45.0496 21.4153C45.1629 20.8488 45.2196 20.2483 45.2196 19.6139C45.2196 17.7332 44.9703 16.3623 44.4718 15.5013C43.9733 14.6176 43.3729 14.1757 42.6704 14.1757C40.971 14.1757 40.1213 16.9514 40.1213 22.5029ZM69.8559 31.5098C68.519 31.5098 67.3294 31.1699 66.2871 30.4902C65.2448 29.7877 64.4177 28.7681 63.8059 27.4312C63.1941 26.0717 62.8882 24.4289 62.8882 22.5029C62.8882 19.6025 63.5567 17.382 64.8936 15.8412C66.2531 14.2777 68.0771 13.496 70.3657 13.496C71.4533 13.496 72.405 13.7225 73.2207 14.1757C73.5606 14.3343 73.9118 14.5609 74.2744 14.8555V8.22775L72.2351 7.71792V7.20809H76.6536C78.6929 7.20809 79.7125 8.22775 79.7125 10.2671V29.9803L81.7518 30.4902V31H78.6929C77.3333 31 76.2797 30.5808 75.5319 29.7424C75.2147 29.4025 74.9655 28.972 74.7842 28.4509C74.4896 29.0173 74.1157 29.5272 73.6626 29.9803C72.6429 31 71.374 31.5098 69.8559 31.5098ZM71.2154 30.3202C72.0538 30.3202 72.8129 29.8671 73.4926 28.9607C73.7419 28.6208 74.0025 28.1676 74.2744 27.6012V15.8751C74.0251 15.6259 73.7645 15.3993 73.4926 15.1954C72.8808 14.7422 72.2917 14.5156 71.7252 14.5156C70.7509 14.5156 69.9918 15.0821 69.448 16.215C68.9268 17.348 68.6663 19.4439 68.6663 22.5029C68.6663 25.4259 68.9042 27.4652 69.38 28.6208C69.8785 29.7538 70.4903 30.3202 71.2154 30.3202ZM92.972 31.5098C90.1623 31.5098 87.953 30.7168 86.3442 29.1306C84.7581 27.5218 83.9651 25.3126 83.9651 22.5029C83.9651 19.6932 84.7581 17.4953 86.3442 15.9091C87.953 14.3003 90.1623 13.496 92.972 13.496C95.7817 13.496 97.9796 14.3003 99.5657 15.9091C101.175 17.4953 101.979 19.6932 101.979 22.5029C101.979 25.3126 101.175 27.5218 99.5657 29.1306C97.9796 30.7168 95.7817 31.5098 92.972 31.5098ZM92.972 30.8301C93.8783 30.8301 94.6374 30.1956 95.2492 28.9267C95.8837 27.6578 96.2009 25.5165 96.2009 22.5029C96.2009 19.4892 95.8837 17.348 95.2492 16.0791C94.6374 14.8102 93.8783 14.1757 92.972 14.1757C92.0656 14.1757 91.2952 14.8102 90.6608 16.0791C90.049 17.348 89.7431 19.4892 89.7431 22.5029C89.7431 25.5165 90.049 27.6578 90.6608 28.9267C91.2952 30.1956 92.0656 30.8301 92.972 30.8301ZM104.71 30.4902L106.749 29.9803V15.0254L104.71 14.5156V14.0058H107.769C109.106 14.0058 110.159 14.4363 110.93 15.2973C111.224 15.6372 111.474 16.0564 111.678 16.5549C111.995 15.9658 112.369 15.456 112.799 15.0254C113.819 14.0058 115.088 13.496 116.606 13.496C117.875 13.496 119.008 13.7679 120.005 14.3117C121.024 14.8328 121.817 15.5239 122.384 16.385C122.95 17.246 123.234 18.1524 123.234 19.104V29.9803L125.273 30.4902V31H120.854C118.815 31 117.795 29.9803 117.795 27.941V19.104C117.795 17.6765 117.535 16.5889 117.014 15.8412C116.515 15.0708 115.926 14.6855 115.246 14.6855C114.385 14.6855 113.615 15.1387 112.935 16.0451C112.641 16.4303 112.391 16.8835 112.187 17.4046V29.9803L114.227 30.4902V31H104.71V30.4902ZM128.333 15.1954C128.809 15.0368 129.285 14.7762 129.761 14.4136C130.735 13.6886 131.336 12.7029 131.562 11.4566L131.12 11.7286C130.826 11.8872 130.463 11.9665 130.033 11.9665C129.353 11.9665 128.752 11.7172 128.231 11.2187C127.733 10.6976 127.484 10.0971 127.484 9.41734C127.484 8.73757 127.733 8.14844 128.231 7.64994C128.752 7.12879 129.353 6.86821 130.033 6.86821C130.826 6.86821 131.472 7.15144 131.97 7.71792C132.491 8.26173 132.752 8.99815 132.752 9.92717C132.752 12.0118 132.072 13.6432 130.712 14.8215C130.123 15.3653 129.444 15.7732 128.673 16.0451L128.333 15.1954ZM144.482 31.5098C142.986 31.5098 141.683 31.2379 140.573 30.6941C139.485 30.1503 138.647 29.4025 138.058 28.4509C137.469 27.4992 137.174 26.4229 137.174 25.222V14.8555H134.795V14.0058H137.174V12.3064C137.174 10.2671 138.194 9.2474 140.233 9.2474H142.612V14.0058H147.371V14.8555H142.612V25.222C142.612 27.3066 142.828 28.7341 143.258 29.5045C143.689 30.2749 144.323 30.6601 145.162 30.6601C145.977 30.6601 146.691 30.2636 147.303 29.4705C147.915 28.6775 148.22 27.6012 148.22 26.2416H149.07C149.07 27.9184 148.651 29.2213 147.813 30.1503C146.974 31.0566 145.864 31.5098 144.482 31.5098ZM160.302 38.3075C158.603 38.3075 157.357 38.0243 156.564 37.4578C155.77 36.8913 155.374 36.0983 155.374 35.0786C155.374 34.3082 155.612 33.6851 156.088 33.2092C156.541 32.7561 157.153 32.5295 157.923 32.5295C158.104 32.5295 158.286 32.5408 158.467 32.5635C158.648 32.6088 158.773 32.6314 158.841 32.6314L159.283 32.6994V37.4578L159.487 37.5598C159.713 37.6051 159.872 37.6277 159.962 37.6277C160.665 37.6277 161.231 37.1972 161.662 36.3362C162.115 35.4978 162.342 34.059 162.342 32.0197V15.0254L160.302 14.5156V14.0058H164.721C166.76 14.0058 167.78 15.0254 167.78 17.0647V32.0197C167.78 33.2206 167.485 34.2969 166.896 35.2486C166.307 36.2002 165.446 36.948 164.313 37.4918C163.18 38.0356 161.843 38.3075 160.302 38.3075ZM164.721 11.9665C164.041 11.9665 163.475 11.7399 163.021 11.2867C162.568 10.8335 162.342 10.2671 162.342 9.58728C162.342 8.90751 162.568 8.34104 163.021 7.88786C163.475 7.43468 164.041 7.20809 164.721 7.20809C165.401 7.20809 165.967 7.43468 166.42 7.88786C166.873 8.34104 167.1 8.90751 167.1 9.58728C167.1 10.2671 166.873 10.8335 166.42 11.2867C165.967 11.7399 165.401 11.9665 164.721 11.9665ZM179.848 31.5098C178.579 31.5098 177.435 31.2492 176.415 30.7281C175.418 30.1843 174.637 29.4818 174.07 28.6208C173.504 27.7598 173.221 26.8534 173.221 25.9017V15.0254L171.181 14.5156V14.0058H175.6C177.639 14.0058 178.659 15.0254 178.659 17.0647V25.9017C178.659 27.3292 178.908 28.4282 179.406 29.1986C179.928 29.9464 180.528 30.3202 181.208 30.3202C182.046 30.3202 182.805 29.8671 183.485 28.9607C183.734 28.6208 183.995 28.1676 184.267 27.6012V15.0254L182.227 14.5156V14.0058H191.744V14.5156L189.705 15.0254V31.1699H189.365C187.711 31.1699 186.453 30.7168 185.592 29.8104C185.207 29.4025 184.935 28.9494 184.777 28.4509C184.459 29.0173 184.086 29.5272 183.655 29.9803C182.635 31 181.366 31.5098 179.848 31.5098ZM201.784 31.5098C200.379 31.5098 199.122 31.2039 198.011 30.5921C197.468 30.2976 197.026 29.9803 196.686 29.6405C196.323 30.139 195.927 30.5242 195.496 30.7961C195.292 30.932 195.066 31.0566 194.816 31.1699H193.967V25.3919H195.326C195.621 26.3436 196.051 27.2273 196.618 28.043C197.819 29.7877 199.314 30.6601 201.104 30.6601C202.056 30.6601 202.77 30.4335 203.246 29.9803C203.744 29.5045 203.993 28.8247 203.993 27.941C203.993 27.1933 203.653 26.5702 202.974 26.0717C202.317 25.5505 201.274 24.9161 199.847 24.1683C198.623 23.5565 197.626 23.0127 196.856 22.5369C196.108 22.0384 195.462 21.4266 194.918 20.7015C194.397 19.9538 194.137 19.0814 194.137 18.0844C194.137 16.7249 194.715 15.6259 195.87 14.7875C197.048 13.9265 198.85 13.496 201.274 13.496C202.475 13.496 203.585 13.8132 204.605 14.4476C205.104 14.7422 205.534 15.0481 205.897 15.3653C206.191 14.9575 206.588 14.5723 207.086 14.2097C207.472 13.9831 207.698 13.8585 207.766 13.8358H208.616V19.6139H207.256C206.916 18.6395 206.497 17.7672 205.999 16.9968C204.866 15.2294 203.518 14.3457 201.954 14.3457C201.342 14.3457 200.821 14.5723 200.391 15.0254C199.96 15.4786 199.745 16.0451 199.745 16.7249C199.745 17.5859 200.107 18.311 200.832 18.9001C201.558 19.4666 202.656 20.1237 204.129 20.8714C205.33 21.4832 206.282 22.0271 206.984 22.5029C207.709 22.9561 208.321 23.5225 208.82 24.2023C209.341 24.8821 209.601 25.6751 209.601 26.5815C209.601 29.8671 206.996 31.5098 201.784 31.5098ZM220.989 31.5098C219.493 31.5098 218.191 31.2379 217.08 30.6941C215.993 30.1503 215.154 29.4025 214.565 28.4509C213.976 27.4992 213.681 26.4229 213.681 25.222V14.8555H211.302V14.0058H213.681V12.3064C213.681 10.2671 214.701 9.2474 216.74 9.2474H219.12V14.0058H223.878V14.8555H219.12V25.222C219.12 27.3066 219.335 28.7341 219.765 29.5045C220.196 30.2749 220.83 30.6601 221.669 30.6601C222.484 30.6601 223.198 30.2636 223.81 29.4705C224.422 28.6775 224.728 27.6012 224.728 26.2416H225.577C225.577 27.9184 225.158 29.2213 224.32 30.1503C223.481 31.0566 222.371 31.5098 220.989 31.5098ZM245.816 31.5098C244.321 31.5098 243.018 31.2379 241.908 30.6941C240.82 30.1503 239.982 29.4025 239.393 28.4509C238.803 27.4992 238.509 26.4229 238.509 25.222V14.8555H236.13V14.0058H238.509V12.3064C238.509 10.2671 239.529 9.2474 241.568 9.2474H243.947V14.0058H248.705V14.8555H243.947V25.222C243.947 27.3066 244.162 28.7341 244.593 29.5045C245.023 30.2749 245.658 30.6601 246.496 30.6601C247.312 30.6601 248.026 30.2636 248.637 29.4705C249.249 28.6775 249.555 27.6012 249.555 26.2416H250.405C250.405 27.9184 249.986 29.2213 249.147 30.1503C248.309 31.0566 247.199 31.5098 245.816 31.5098ZM261.458 31.5098C258.557 31.5098 256.303 30.7168 254.694 29.1306C253.085 27.5218 252.281 25.3126 252.281 22.5029C252.281 20.6675 252.632 19.0701 253.334 17.7105C254.037 16.351 255.011 15.3087 256.257 14.5836C257.526 13.8585 258.977 13.496 260.608 13.496C262.239 13.496 263.667 13.8018 264.891 14.4136C266.137 15.0254 267.088 15.8525 267.746 16.8948C268.425 17.9145 268.765 19.0474 268.765 20.2936C268.765 20.8601 268.709 21.3473 268.595 21.7551L268.425 22.3329C267.451 22.5369 266.397 22.7068 265.264 22.8428C262.885 23.1827 260.483 23.3526 258.059 23.3526C258.059 25.981 258.421 27.8617 259.146 28.9947C259.872 30.105 260.869 30.6601 262.137 30.6601C263.021 30.6601 263.837 30.4562 264.585 30.0483C265.355 29.6178 265.956 29.0627 266.386 28.3829C266.839 27.6805 267.066 26.9667 267.066 26.2416H267.916C267.916 27.148 267.644 28.009 267.1 28.8247C266.556 29.6405 265.797 30.2976 264.823 30.7961C263.848 31.2719 262.727 31.5098 261.458 31.5098ZM258.059 22.5029C259.509 22.5029 260.687 22.4462 261.594 22.3329C261.979 22.3103 262.387 22.2536 262.817 22.163C262.84 22.0497 262.897 21.8005 262.987 21.4153C263.1 20.8488 263.157 20.2483 263.157 19.6139C263.157 17.7332 262.908 16.3623 262.409 15.5013C261.911 14.6176 261.31 14.1757 260.608 14.1757C258.909 14.1757 258.059 16.9514 258.059 22.5029ZM277.596 31.5098C275.579 31.5098 274.027 31.0793 272.939 30.2183C271.852 29.3572 271.308 28.2583 271.308 26.9214C271.308 26.0377 271.5 25.1653 271.886 24.3043C272.044 23.8964 272.248 23.5225 272.497 23.1827C273.426 22.9561 274.435 22.7521 275.522 22.5709C277.969 22.163 280.133 21.9138 282.014 21.8231V20.8035C282.014 18.2883 281.708 16.5549 281.096 15.6032C280.485 14.6516 279.544 14.1757 278.275 14.1757C277.8 14.1757 277.392 14.2324 277.052 14.3457L276.576 14.5156V19.6139L276.134 19.7158C275.772 19.7612 275.466 19.7838 275.216 19.7838C274.446 19.7838 273.823 19.5572 273.347 19.104C272.894 18.6282 272.667 18.0051 272.667 17.2347C272.667 16.1924 273.188 15.3087 274.231 14.5836C275.296 13.8585 276.871 13.496 278.955 13.496C280.723 13.496 282.241 13.8132 283.51 14.4476C284.801 15.0594 285.775 15.9205 286.433 17.0308C287.112 18.1184 287.452 19.376 287.452 20.8035V29.9803L289.492 30.4902V31H286.433C285.073 31 284.019 30.5808 283.272 29.7424C282.954 29.4025 282.705 28.972 282.524 28.4509C282.207 29.0173 281.833 29.5272 281.402 29.9803C280.383 31 279.114 31.5098 277.596 31.5098ZM278.955 30.3202C279.794 30.3202 280.553 29.8671 281.232 28.9607C281.482 28.6208 281.742 28.1676 282.014 27.6012V22.6728C280.972 22.6728 279.975 22.7295 279.023 22.8428C278.321 22.9334 277.845 22.9901 277.596 23.0127C277.482 23.262 277.369 23.6018 277.256 24.0324C277.029 24.8934 276.916 25.7431 276.916 26.5815C276.916 27.8504 277.108 28.7908 277.494 29.4025C277.879 30.0143 278.366 30.3202 278.955 30.3202ZM300.724 31.5098C297.823 31.5098 295.569 30.7168 293.96 29.1306C292.351 27.5218 291.547 25.3126 291.547 22.5029C291.547 19.6932 292.351 17.4953 293.96 15.9091C295.569 14.3003 297.823 13.496 300.724 13.496C302.808 13.496 304.372 13.8585 305.414 14.5836C306.479 15.3087 307.012 16.1924 307.012 17.2347C307.012 18.0051 306.774 18.6282 306.298 19.104C305.845 19.5572 305.233 19.7838 304.462 19.7838C304.145 19.7838 303.828 19.7612 303.511 19.7158L303.103 19.6139V14.5156L302.627 14.3457C302.287 14.2324 301.879 14.1757 301.403 14.1757C300.112 14.1757 299.104 14.7875 298.378 16.0111C297.676 17.2347 297.325 19.3986 297.325 22.5029C297.325 25.5165 297.676 27.6351 298.378 28.8587C299.104 30.0597 300.112 30.6601 301.403 30.6601C302.287 30.6601 303.103 30.4562 303.851 30.0483C304.621 29.6178 305.221 29.0627 305.652 28.3829C306.105 27.6805 306.332 26.9667 306.332 26.2416H307.181C307.181 27.148 306.91 28.009 306.366 28.8247C305.822 29.6405 305.063 30.2976 304.088 30.7961C303.114 31.2719 301.993 31.5098 300.724 31.5098ZM309.57 30.4902L311.609 29.9803V8.22775L309.57 7.71792V7.20809H313.988C316.028 7.20809 317.047 8.22775 317.047 10.2671V15.7052C317.387 15.252 317.739 14.8895 318.101 14.6176C319.075 13.8698 320.197 13.496 321.466 13.496C322.735 13.496 323.868 13.7679 324.865 14.3117C325.884 14.8328 326.677 15.5239 327.244 16.385C327.81 17.246 328.094 18.1524 328.094 19.104V29.9803L330.133 30.4902V31H325.714C323.675 31 322.656 29.9803 322.656 27.941V19.104C322.656 17.6765 322.395 16.5889 321.874 15.8412C321.375 15.0708 320.786 14.6855 320.106 14.6855C319.245 14.6855 318.475 15.1387 317.795 16.0451C317.501 16.4303 317.251 16.8835 317.047 17.4046V29.9803L319.087 30.4902V31H309.57V30.4902ZM45.495 70.5098C42.5947 70.5098 40.3401 69.7168 38.7314 68.1306C37.1226 66.5218 36.3182 64.3126 36.3182 61.5029C36.3182 58.6932 37.1226 56.4953 38.7314 54.9091C40.3401 53.3003 42.5947 52.496 45.495 52.496C47.5797 52.496 49.1431 52.8585 50.1855 53.5836C51.2504 54.3087 51.7829 55.1924 51.7829 56.2347C51.7829 57.0051 51.545 57.6282 51.0692 58.104C50.616 58.5572 50.0042 58.7838 49.2338 58.7838C48.9166 58.7838 48.5993 58.7612 48.2821 58.7158L47.8742 58.6139V53.5156L47.3984 53.3457C47.0585 53.2324 46.6507 53.1757 46.1748 53.1757C44.8833 53.1757 43.8749 53.7875 43.1498 55.0111C42.4474 56.2347 42.0962 58.3986 42.0962 61.5029C42.0962 64.5165 42.4474 66.6351 43.1498 67.8587C43.8749 69.0597 44.8833 69.6601 46.1748 69.6601C47.0585 69.6601 47.8742 69.4562 48.622 69.0483C49.3924 68.6178 49.9929 68.0627 50.4234 67.3829C50.8766 66.6805 51.1031 65.9667 51.1031 65.2416H51.9529C51.9529 66.148 51.6809 67.009 51.1371 67.8247C50.5933 68.6405 49.8342 69.2976 48.8599 69.7961C47.8856 70.2719 46.764 70.5098 45.495 70.5098ZM54.3413 69.4902L56.3806 68.9803V47.2277L54.3413 46.7179V46.2081H58.7598C60.7991 46.2081 61.8188 47.2277 61.8188 49.2671V54.7052C62.1587 54.252 62.5099 53.8895 62.8724 53.6176C63.8468 52.8698 64.9684 52.496 66.2373 52.496C67.5062 52.496 68.6391 52.7679 69.6361 53.3117C70.6558 53.8328 71.4488 54.5239 72.0153 55.385C72.5818 56.246 72.865 57.1524 72.865 58.104V68.9803L74.9043 69.4902V70H70.4858C68.4465 70 67.4269 68.9803 67.4269 66.941V58.104C67.4269 56.6765 67.1663 55.5889 66.6451 54.8412C66.1467 54.0708 65.5575 53.6855 64.8778 53.6855C64.0167 53.6855 63.2463 54.1387 62.5665 55.0451C62.272 55.4303 62.0227 55.8835 61.8188 56.4046V68.9803L63.8581 69.4902V70H54.3413V69.4902ZM86.1218 70.5098C83.2215 70.5098 80.9669 69.7168 79.3582 68.1306C77.7494 66.5218 76.945 64.3126 76.945 61.5029C76.945 59.6675 77.2962 58.0701 77.9986 56.7105C78.701 55.351 79.6754 54.3087 80.9216 53.5836C82.1905 52.8585 83.6407 52.496 85.2721 52.496C86.9036 52.496 88.3311 52.8018 89.5547 53.4136C90.8009 54.0254 91.7526 54.8525 92.4097 55.8948C93.0895 56.9145 93.4294 58.0474 93.4294 59.2936C93.4294 59.8601 93.3727 60.3473 93.2594 60.7551L93.0895 61.3329C92.1151 61.5369 91.0615 61.7068 89.9286 61.8428C87.5494 62.1827 85.1475 62.3526 82.723 62.3526C82.723 64.981 83.0855 66.8617 83.8106 67.9947C84.5357 69.105 85.5327 69.6601 86.8016 69.6601C87.6853 69.6601 88.501 69.4562 89.2488 69.0483C90.0192 68.6178 90.6197 68.0627 91.0502 67.3829C91.5034 66.6805 91.7299 65.9667 91.7299 65.2416H92.5797C92.5797 66.148 92.3077 67.009 91.7639 67.8247C91.2201 68.6405 90.461 69.2976 89.4867 69.7961C88.5124 70.2719 87.3908 70.5098 86.1218 70.5098ZM82.723 61.5029C84.1732 61.5029 85.3514 61.4462 86.2578 61.3329C86.643 61.3103 87.0509 61.2536 87.4814 61.163C87.504 61.0497 87.5607 60.8005 87.6513 60.4153C87.7646 59.8488 87.8213 59.2483 87.8213 58.6139C87.8213 56.7332 87.572 55.3623 87.0735 54.5013C86.575 53.6176 85.9746 53.1757 85.2721 53.1757C83.5727 53.1757 82.723 55.9514 82.723 61.5029ZM103.951 70.5098C102.546 70.5098 101.289 70.2039 100.178 69.5921C99.6346 69.2976 99.1928 68.9803 98.8529 68.6405C98.4904 69.139 98.0938 69.5242 97.6633 69.7961C97.4594 69.932 97.2328 70.0566 96.9835 70.1699H96.1338V64.3919H97.4934C97.7879 65.3436 98.2185 66.2273 98.7849 67.043C99.9859 68.7877 101.481 69.6601 103.271 69.6601C104.223 69.6601 104.937 69.4335 105.413 68.9803C105.911 68.5045 106.16 67.8247 106.16 66.941C106.16 66.1933 105.821 65.5702 105.141 65.0717C104.484 64.5505 103.441 63.9161 102.014 63.1683C100.79 62.5565 99.7933 62.0127 99.0229 61.5369C98.2751 61.0384 97.6293 60.4266 97.0855 59.7015C96.5644 58.9538 96.3038 58.0814 96.3038 57.0844C96.3038 55.7249 96.8816 54.6259 98.0372 53.7875C99.2155 52.9265 101.017 52.496 103.441 52.496C104.642 52.496 105.753 52.8132 106.772 53.4476C107.271 53.7422 107.701 54.0481 108.064 54.3653C108.358 53.9575 108.755 53.5723 109.253 53.2097C109.639 52.9831 109.865 52.8585 109.933 52.8358H110.783V58.6139H109.423C109.083 57.6395 108.664 56.7672 108.166 55.9968C107.033 54.2294 105.685 53.3457 104.121 53.3457C103.509 53.3457 102.988 53.5723 102.558 54.0254C102.127 54.4786 101.912 55.0451 101.912 55.7249C101.912 56.5859 102.274 57.311 102.999 57.9001C103.725 58.4666 104.824 59.1237 106.296 59.8714C107.497 60.4832 108.449 61.0271 109.151 61.5029C109.876 61.9561 110.488 62.5225 110.987 63.2023C111.508 63.8821 111.769 64.6751 111.769 65.5815C111.769 68.8671 109.163 70.5098 103.951 70.5098ZM122.306 70.5098C120.901 70.5098 119.644 70.2039 118.534 69.5921C117.99 69.2976 117.548 68.9803 117.208 68.6405C116.845 69.139 116.449 69.5242 116.018 69.7961C115.814 69.932 115.588 70.0566 115.339 70.1699H114.489V64.3919H115.848C116.143 65.3436 116.574 66.2273 117.14 67.043C118.341 68.7877 119.836 69.6601 121.626 69.6601C122.578 69.6601 123.292 69.4335 123.768 68.9803C124.266 68.5045 124.516 67.8247 124.516 66.941C124.516 66.1933 124.176 65.5702 123.496 65.0717C122.839 64.5505 121.796 63.9161 120.369 63.1683C119.145 62.5565 118.148 62.0127 117.378 61.5369C116.63 61.0384 115.984 60.4266 115.441 59.7015C114.919 58.9538 114.659 58.0814 114.659 57.0844C114.659 55.7249 115.237 54.6259 116.392 53.7875C117.571 52.9265 119.372 52.496 121.796 52.496C122.997 52.496 124.108 52.8132 125.127 53.4476C125.626 53.7422 126.056 54.0481 126.419 54.3653C126.713 53.9575 127.11 53.5723 127.608 53.2097C127.994 52.9831 128.22 52.8585 128.288 52.8358H129.138V58.6139H127.778C127.439 57.6395 127.019 56.7672 126.521 55.9968C125.388 54.2294 124.04 53.3457 122.476 53.3457C121.864 53.3457 121.343 53.5723 120.913 54.0254C120.482 54.4786 120.267 55.0451 120.267 55.7249C120.267 56.5859 120.629 57.311 121.355 57.9001C122.08 58.4666 123.179 59.1237 124.651 59.8714C125.852 60.4832 126.804 61.0271 127.506 61.5029C128.232 61.9561 128.843 62.5225 129.342 63.2023C129.863 63.8821 130.124 64.6751 130.124 65.5815C130.124 68.8671 127.518 70.5098 122.306 70.5098ZM133.694 73.5688C134.17 73.4102 134.645 73.1496 135.121 72.7871C136.096 72.062 136.696 71.0763 136.923 69.8301L136.481 70.102C136.186 70.2606 135.824 70.3399 135.393 70.3399C134.713 70.3399 134.113 70.0906 133.592 69.5921C133.093 69.071 132.844 68.4705 132.844 67.7908C132.844 67.111 133.093 66.5218 133.592 66.0234C134.113 65.5022 134.713 65.2416 135.393 65.2416C136.186 65.2416 136.832 65.5249 137.33 66.0913C137.852 66.6351 138.112 67.3716 138.112 68.3006C138.112 70.3852 137.432 72.0166 136.073 73.1949C135.484 73.7387 134.804 74.1466 134.034 74.4185L133.694 73.5688ZM150.191 54.0254L148.492 53.5156V53.0058H152.401C153.602 53.0058 154.553 53.255 155.256 53.7535C155.958 54.252 156.536 54.9658 156.989 55.8948L160.728 63.7121L162.665 58.7498L160.388 54.0254L158.688 53.5156V53.0058H162.597C163.798 53.0058 164.75 53.255 165.452 53.7535C166.155 54.252 166.732 54.9658 167.186 55.8948L170.924 63.7121L174.493 54.5353L171.944 53.5156V53.0058H178.232V53.5156L175.513 54.5353L169.225 70.3399H168.205L163.175 59.8714L159.028 70.3399H158.009L150.191 54.0254ZM187.423 70.5098C184.523 70.5098 182.268 69.7168 180.66 68.1306C179.051 66.5218 178.246 64.3126 178.246 61.5029C178.246 59.6675 178.598 58.0701 179.3 56.7105C180.003 55.351 180.977 54.3087 182.223 53.5836C183.492 52.8585 184.942 52.496 186.574 52.496C188.205 52.496 189.633 52.8018 190.856 53.4136C192.102 54.0254 193.054 54.8525 193.711 55.8948C194.391 56.9145 194.731 58.0474 194.731 59.2936C194.731 59.8601 194.674 60.3473 194.561 60.7551L194.391 61.3329C193.417 61.5369 192.363 61.7068 191.23 61.8428C188.851 62.1827 186.449 62.3526 184.024 62.3526C184.024 64.981 184.387 66.8617 185.112 67.9947C185.837 69.105 186.834 69.6601 188.103 69.6601C188.987 69.6601 189.803 69.4562 190.55 69.0483C191.321 68.6178 191.921 68.0627 192.352 67.3829C192.805 66.6805 193.031 65.9667 193.031 65.2416H193.881C193.881 66.148 193.609 67.009 193.065 67.8247C192.522 68.6405 191.763 69.2976 190.788 69.7961C189.814 70.2719 188.692 70.5098 187.423 70.5098ZM184.024 61.5029C185.475 61.5029 186.653 61.4462 187.559 61.3329C187.944 61.3103 188.352 61.2536 188.783 61.163C188.806 61.0497 188.862 60.8005 188.953 60.4153C189.066 59.8488 189.123 59.2483 189.123 58.6139C189.123 56.7332 188.874 55.3623 188.375 54.5013C187.877 53.6176 187.276 53.1757 186.574 53.1757C184.874 53.1757 184.024 55.9514 184.024 61.5029ZM206.791 69.4902L208.831 68.9803V54.0254L206.791 53.5156V53.0058H209.85C211.187 53.0058 212.241 53.4363 213.011 54.2973C213.306 54.6372 213.555 55.0564 213.759 55.5549C214.099 54.9205 214.461 54.4106 214.847 54.0254C215.866 53.0058 217.033 52.496 218.347 52.496C219.662 52.496 220.817 52.7905 221.814 53.3797C222.811 53.9461 223.582 54.7279 224.126 55.7249C224.465 55.0677 224.828 54.5353 225.213 54.1274C226.255 53.0398 227.422 52.496 228.714 52.496C229.915 52.496 230.991 52.7452 231.943 53.2437C232.917 53.7422 233.665 54.422 234.186 55.283C234.73 56.144 235.002 57.0844 235.002 58.104V68.9803L237.041 69.4902V70H232.623C230.583 70 229.564 68.9803 229.564 66.941V58.104C229.564 56.6312 229.337 55.5323 228.884 54.8072C228.431 54.0594 227.921 53.6855 227.354 53.6855C226.697 53.6855 226.029 54.1387 225.349 55.0451C225.077 55.4756 224.839 55.9288 224.635 56.4046V68.9803L226.675 69.4902V70H217.158V69.4902L219.197 68.9803V58.104C219.197 56.6312 218.971 55.5323 218.517 54.8072C218.064 54.0594 217.554 53.6855 216.988 53.6855C216.331 53.6855 215.662 54.1387 214.983 55.0451C214.711 55.4756 214.473 55.9288 214.269 56.4046V68.9803L216.308 69.4902V70H206.791V69.4902ZM245.715 70.5098C243.698 70.5098 242.146 70.0793 241.058 69.2183C239.971 68.3572 239.427 67.2583 239.427 65.9214C239.427 65.0377 239.62 64.1653 240.005 63.3043C240.163 62.8964 240.367 62.5225 240.617 62.1827C241.546 61.9561 242.554 61.7521 243.642 61.5709C246.089 61.163 248.253 60.9138 250.133 60.8231V59.8035C250.133 57.2883 249.827 55.5549 249.216 54.6032C248.604 53.6516 247.663 53.1757 246.395 53.1757C245.919 53.1757 245.511 53.2324 245.171 53.3457L244.695 53.5156V58.6139L244.253 58.7158C243.891 58.7612 243.585 58.7838 243.336 58.7838C242.565 58.7838 241.942 58.5572 241.466 58.104C241.013 57.6282 240.786 57.0051 240.786 56.2347C240.786 55.1924 241.308 54.3087 242.35 53.5836C243.415 52.8585 244.99 52.496 247.074 52.496C248.842 52.496 250.36 52.8132 251.629 53.4476C252.92 54.0594 253.895 54.9205 254.552 56.0308C255.232 57.1184 255.571 58.376 255.571 59.8035V68.9803L257.611 69.4902V70H254.552C253.192 70 252.139 69.5808 251.391 68.7424C251.074 68.4025 250.824 67.972 250.643 67.4509C250.326 68.0173 249.952 68.5272 249.522 68.9803C248.502 70 247.233 70.5098 245.715 70.5098ZM247.074 69.3202C247.913 69.3202 248.672 68.8671 249.352 67.9607C249.601 67.6208 249.861 67.1676 250.133 66.6012V61.6728C249.091 61.6728 248.094 61.7295 247.142 61.8428C246.44 61.9334 245.964 61.9901 245.715 62.0127C245.602 62.262 245.488 62.6018 245.375 63.0324C245.148 63.8934 245.035 64.7431 245.035 65.5815C245.035 66.8504 245.228 67.7908 245.613 68.4025C245.998 69.0143 246.485 69.3202 247.074 69.3202ZM259.666 69.4902L261.705 68.9803V47.2277L259.666 46.7179V46.2081H264.085C266.124 46.2081 267.143 47.2277 267.143 49.2671V61.163L273.431 54.5353L270.882 53.5156V53.0058H277.34V53.5156L274.621 54.5353L270.712 58.6139L277.34 68.9803L279.039 69.4902V70H274.621C273.533 70 272.65 69.7621 271.97 69.2862C271.29 68.8104 270.644 68.0853 270.032 67.111L267.143 62.5225V68.9803L269.183 69.4902V70H259.666V69.4902ZM288.559 70.5098C285.658 70.5098 283.404 69.7168 281.795 68.1306C280.186 66.5218 279.382 64.3126 279.382 61.5029C279.382 59.6675 279.733 58.0701 280.436 56.7105C281.138 55.351 282.112 54.3087 283.359 53.5836C284.628 52.8585 286.078 52.496 287.709 52.496C289.341 52.496 290.768 52.8018 291.992 53.4136C293.238 54.0254 294.19 54.8525 294.847 55.8948C295.526 56.9145 295.866 58.0474 295.866 59.2936C295.866 59.8601 295.81 60.3473 295.696 60.7551L295.526 61.3329C294.552 61.5369 293.499 61.7068 292.366 61.8428C289.986 62.1827 287.585 62.3526 285.16 62.3526C285.16 64.981 285.523 66.8617 286.248 67.9947C286.973 69.105 287.97 69.6601 289.239 69.6601C290.122 69.6601 290.938 69.4562 291.686 69.0483C292.456 68.6178 293.057 68.0627 293.487 67.3829C293.94 66.6805 294.167 65.9667 294.167 65.2416H295.017C295.017 66.148 294.745 67.009 294.201 67.8247C293.657 68.6405 292.898 69.2976 291.924 69.7961C290.949 70.2719 289.828 70.5098 288.559 70.5098ZM285.16 61.5029C286.61 61.5029 287.788 61.4462 288.695 61.3329C289.08 61.3103 289.488 61.2536 289.918 61.163C289.941 61.0497 289.998 60.8005 290.088 60.4153C290.202 59.8488 290.258 59.2483 290.258 58.6139C290.258 56.7332 290.009 55.3623 289.511 54.5013C289.012 53.6176 288.412 53.1757 287.709 53.1757C286.01 53.1757 285.16 55.9514 285.16 61.5029ZM91.9895 93.0254L90.2901 92.5156V92.0058H94.1988C95.3997 92.0058 96.3514 92.255 97.0538 92.7535C97.7562 93.252 98.334 93.9658 98.7872 94.8948L102.526 102.712L104.463 97.7498L102.186 93.0254L100.487 92.5156V92.0058H104.395C105.596 92.0058 106.548 92.255 107.25 92.7535C107.953 93.252 108.531 93.9658 108.984 94.8948L112.722 102.712L116.291 93.5353L113.742 92.5156V92.0058H120.03V92.5156L117.311 93.5353L111.023 109.34H110.003L104.973 98.8714L100.827 109.34H99.8069L91.9895 93.0254ZM125.975 109.51C123.959 109.51 122.407 109.079 121.319 108.218C120.231 107.357 119.687 106.258 119.687 104.921C119.687 104.038 119.88 103.165 120.265 102.304C120.424 101.896 120.628 101.523 120.877 101.183C121.806 100.956 122.814 100.752 123.902 100.571C126.349 100.163 128.513 99.9138 130.394 99.8231V98.8035C130.394 96.2883 130.088 94.5549 129.476 93.6032C128.864 92.6516 127.924 92.1757 126.655 92.1757C126.179 92.1757 125.771 92.2324 125.431 92.3457L124.956 92.5156V97.6139L124.514 97.7158C124.151 97.7612 123.845 97.7838 123.596 97.7838C122.826 97.7838 122.203 97.5572 121.727 97.104C121.274 96.6282 121.047 96.0051 121.047 95.2347C121.047 94.1924 121.568 93.3087 122.61 92.5836C123.675 91.8585 125.25 91.496 127.335 91.496C129.102 91.496 130.62 91.8132 131.889 92.4476C133.181 93.0594 134.155 93.9205 134.812 95.0308C135.492 96.1184 135.832 97.376 135.832 98.8035V107.98L137.871 108.49V109H134.812C133.453 109 132.399 108.581 131.651 107.742C131.334 107.403 131.085 106.972 130.904 106.451C130.586 107.017 130.213 107.527 129.782 107.98C128.762 109 127.493 109.51 125.975 109.51ZM127.335 108.32C128.173 108.32 128.932 107.867 129.612 106.961C129.861 106.621 130.122 106.168 130.394 105.601V100.673C129.351 100.673 128.354 100.729 127.403 100.843C126.7 100.933 126.225 100.99 125.975 101.013C125.862 101.262 125.749 101.602 125.635 102.032C125.409 102.893 125.296 103.743 125.296 104.582C125.296 105.85 125.488 106.791 125.873 107.403C126.259 108.014 126.746 108.32 127.335 108.32ZM139.926 108.49L141.966 107.98V93.0254L139.926 92.5156V92.0058H142.985C144.322 92.0058 145.376 92.4363 146.146 93.2973C146.441 93.6372 146.69 94.0564 146.894 94.5549C147.234 94.0564 147.653 93.6032 148.152 93.1954C149.285 92.289 150.554 91.8358 151.958 91.8358C153.159 91.8358 154.054 92.1191 154.643 92.6855C155.255 93.2294 155.561 94.0224 155.561 95.0647C155.561 95.8351 155.323 96.4583 154.847 96.9341C154.394 97.3873 153.782 97.6139 153.012 97.6139C152.695 97.6139 152.378 97.5912 152.06 97.5459L151.653 97.4439V92.6855C150.497 92.6855 149.443 93.1387 148.492 94.0451C148.038 94.4983 147.676 94.9514 147.404 95.4046V107.98L149.443 108.49V109H139.926V108.49ZM157.087 108.49L159.126 107.98V93.0254L157.087 92.5156V92.0058H160.146C161.483 92.0058 162.536 92.4363 163.307 93.2973C163.601 93.6372 163.85 94.0564 164.054 94.5549C164.394 94.0564 164.813 93.6032 165.312 93.1954C166.445 92.289 167.714 91.8358 169.119 91.8358C170.319 91.8358 171.215 92.1191 171.804 92.6855C172.415 93.2294 172.721 94.0224 172.721 95.0647C172.721 95.8351 172.483 96.4583 172.008 96.9341C171.554 97.3873 170.943 97.6139 170.172 97.6139C169.855 97.6139 169.538 97.5912 169.221 97.5459L168.813 97.4439V92.6855C167.657 92.6855 166.603 93.1387 165.652 94.0451C165.199 94.4983 164.836 94.9514 164.564 95.4046V107.98L166.603 108.49V109H157.087V108.49ZM174.247 108.49L176.286 107.98V93.0254L174.247 92.5156V92.0058H178.665C180.705 92.0058 181.724 93.0254 181.724 95.0647V107.98L183.764 108.49V109H174.247V108.49ZM178.665 89.9665C177.986 89.9665 177.419 89.7399 176.966 89.2867C176.513 88.8335 176.286 88.2671 176.286 87.5873C176.286 86.9075 176.513 86.341 176.966 85.8879C177.419 85.4347 177.986 85.2081 178.665 85.2081C179.345 85.2081 179.912 85.4347 180.365 85.8879C180.818 86.341 181.045 86.9075 181.045 87.5873C181.045 88.2671 180.818 88.8335 180.365 89.2867C179.912 89.7399 179.345 89.9665 178.665 89.9665ZM194.805 109.51C191.995 109.51 189.786 108.717 188.177 107.131C186.591 105.522 185.798 103.313 185.798 100.503C185.798 97.6932 186.591 95.4953 188.177 93.9091C189.786 92.3003 191.995 91.496 194.805 91.496C197.614 91.496 199.812 92.3003 201.398 93.9091C203.007 95.4953 203.811 97.6932 203.811 100.503C203.811 103.313 203.007 105.522 201.398 107.131C199.812 108.717 197.614 109.51 194.805 109.51ZM194.805 108.83C195.711 108.83 196.47 108.196 197.082 106.927C197.716 105.658 198.033 103.517 198.033 100.503C198.033 97.4892 197.716 95.348 197.082 94.0791C196.47 92.8102 195.711 92.1757 194.805 92.1757C193.898 92.1757 193.128 92.8102 192.493 94.0791C191.882 95.348 191.576 97.4892 191.576 100.503C191.576 103.517 191.882 105.658 192.493 106.927C193.128 108.196 193.898 108.83 194.805 108.83ZM206.542 108.49L208.582 107.98V93.0254L206.542 92.5156V92.0058H209.601C210.938 92.0058 211.992 92.4363 212.762 93.2973C213.057 93.6372 213.306 94.0564 213.51 94.5549C213.85 94.0564 214.269 93.6032 214.768 93.1954C215.901 92.289 217.17 91.8358 218.574 91.8358C219.775 91.8358 220.67 92.1191 221.259 92.6855C221.871 93.2294 222.177 94.0224 222.177 95.0647C222.177 95.8351 221.939 96.4583 221.463 96.9341C221.01 97.3873 220.398 97.6139 219.628 97.6139C219.311 97.6139 218.994 97.5912 218.676 97.5459L218.269 97.4439V92.6855C217.113 92.6855 216.059 93.1387 215.108 94.0451C214.654 94.4983 214.292 94.9514 214.02 95.4046V107.98L216.059 108.49V109H206.542V108.49ZM232.022 109.51C230.617 109.51 229.359 109.204 228.249 108.592C227.705 108.298 227.264 107.98 226.924 107.64C226.561 108.139 226.165 108.524 225.734 108.796C225.53 108.932 225.304 109.057 225.054 109.17H224.205V103.392H225.564C225.859 104.344 226.289 105.227 226.856 106.043C228.057 107.788 229.552 108.66 231.342 108.66C232.294 108.66 233.008 108.434 233.483 107.98C233.982 107.505 234.231 106.825 234.231 105.941C234.231 105.193 233.891 104.57 233.211 104.072C232.554 103.551 231.512 102.916 230.085 102.168C228.861 101.557 227.864 101.013 227.094 100.537C226.346 100.038 225.7 99.4266 225.156 98.7015C224.635 97.9538 224.374 97.0814 224.374 96.0844C224.374 94.7249 224.952 93.6259 226.108 92.7875C227.286 91.9265 229.088 91.496 231.512 91.496C232.713 91.496 233.823 91.8132 234.843 92.4476C235.341 92.7422 235.772 93.0481 236.134 93.3653C236.429 92.9575 236.826 92.5723 237.324 92.2097C237.709 91.9831 237.936 91.8585 238.004 91.8358H238.854V97.6139H237.494C237.154 96.6395 236.735 95.7672 236.236 94.9968C235.104 93.2294 233.755 92.3457 232.192 92.3457C231.58 92.3457 231.059 92.5723 230.628 93.0254C230.198 93.4786 229.983 94.0451 229.983 94.7249C229.983 95.5859 230.345 96.311 231.07 96.9001C231.795 97.4666 232.894 98.1237 234.367 98.8714C235.568 99.4832 236.52 100.027 237.222 100.503C237.947 100.956 238.559 101.523 239.057 102.202C239.579 102.882 239.839 103.675 239.839 104.582C239.839 107.867 237.233 109.51 232.022 109.51Z" fill="#AE2012"/>
<rect x="37.875" y="129" width="59.25" height="52.5" rx="26.25" fill="#C7F2D0"/>
<g clip-path="url(#clip0_348_1062)">
<g clip-path="url(#clip1_348_1062)">
<path fill-rule="evenodd" clip-rule="evenodd" d="M48.875 142H60.8731V169H48.875V142Z" fill="#000001"/>
<path fill-rule="evenodd" clip-rule="evenodd" d="M60.874 142H72.8778V169H60.874V142Z" fill="#FFD90C"/>
<path fill-rule="evenodd" clip-rule="evenodd" d="M72.876 142H84.8741V169H72.876V142Z" fill="#F31830"/>
</g>
</g>
<rect x="87.125" y="129" width="59.25" height="52.5" rx="26.25" fill="#C7F2D0"/>
<g clip-path="url(#clip2_348_1062)">
<mask id="mask0_348_1062" style="mask-type:luminance" maskUnits="userSpaceOnUse" x="98" y="141" width="37" height="28">
<path d="M98.125 141.75H134.125V168.749H98.125V141.75Z" fill="white"/>
</mask>
<g mask="url(#mask0_348_1062)">
<path fill-rule="evenodd" clip-rule="evenodd" d="M98.125 163.253V147.254L110.037 155.254L98.125 163.253Z" fill="#000001"/>
<path fill-rule="evenodd" clip-rule="evenodd" d="M106.251 168.753L119.624 159.757H138.618V168.748H106.251V168.753Z" fill="#000C8A"/>
<path fill-rule="evenodd" clip-rule="evenodd" d="M105.396 141.75H138.618V150.756H119.618C119.618 150.756 105.57 141.66 105.396 141.75Z" fill="#E1392D"/>
<path fill-rule="evenodd" clip-rule="evenodd" d="M98.1244 145.125V147.255L110.037 155.25L98.1191 163.254V165.379L113.121 155.255L98.1244 145.125Z" fill="#FFB915"/>
<path fill-rule="evenodd" clip-rule="evenodd" d="M98.125 145.125V141.75H103.135L119.017 152.507H138.623V158.002H119.017L103.129 168.749H98.125V165.379L113.122 155.255L98.1303 145.125H98.125Z" fill="#007847"/>
<path fill-rule="evenodd" clip-rule="evenodd" d="M103.129 141.75H106.251L119.623 150.751H138.617V152.507H119.017L103.129 141.75ZM103.129 168.754H106.251L119.623 159.758H138.617V158.007H119.017L103.129 168.749V168.754Z" fill="white"/>
</g>
</g>
<rect x="136.375" y="129" width="59.25" height="52.5" rx="26.25" fill="#FED9A5"/>
<g clip-path="url(#clip3_348_1062)">
<path d="M150.625 144H180.625V166.5H150.625" fill="#BD3D44"/>
<path d="M150.625 146.592H180.625H150.625ZM150.625 150.046H180.625H150.625ZM150.625 153.515H180.625H150.625ZM150.625 156.984H180.625H150.625ZM150.625 160.453H180.625H150.625ZM150.625 163.921H180.625H150.625Z" fill="black"/>
<path d="M150.625 146.592H180.625M150.625 150.046H180.625M150.625 153.515H180.625M150.625 156.984H180.625M150.625 160.453H180.625M150.625 163.921H180.625" stroke="white" stroke-width="1.73438"/>
<path d="M150.625 144H167.725V156.117H150.625" fill="#192F5D"/>
</g>
<rect x="185.625" y="129" width="59.25" height="52.5" rx="26.25" fill="#C7F2D0"/>
<g clip-path="url(#clip4_348_1062)">
<path fill-rule="evenodd" clip-rule="evenodd" d="M196.875 141.75H232.875V168.75H196.875V141.75Z" fill="white"/>
<path fill-rule="evenodd" clip-rule="evenodd" d="M220.871 141.75H232.875V168.75H220.871V141.75ZM196.875 141.75H208.873V168.75H196.875V141.75Z" fill="#008753"/>
</g>
<rect x="234.875" y="129" width="59.25" height="52.5" rx="26.25" fill="#FED9A5"/>
<path fill-rule="evenodd" clip-rule="evenodd" d="M249.886 144.272H280.153V165.892H249.886V144.272Z" fill="url(#paint0_linear_348_1062)"/>
<path fill-rule="evenodd" clip-rule="evenodd" d="M249.883 144.272H280.15V165.892H249.883V144.272Z" fill="url(#paint1_linear_348_1062)"/>
<path fill-rule="evenodd" clip-rule="evenodd" d="M257.097 158.685H249.883V151.478H257.097L246.885 144.59L248.497 142.2L261.414 150.913V142.831H268.62V150.913L281.537 142.2L283.149 144.59L272.936 151.478H280.151V158.685H272.936L283.149 165.573L281.537 167.963L268.62 159.251V167.333H261.414V159.251L248.497 167.963L246.885 165.573L257.097 158.685Z" fill="url(#paint2_linear_348_1062)"/>
<path d="M270.262 151.418L283.953 142.411C284.119 142.302 284.165 142.079 284.056 141.912C283.946 141.746 283.723 141.7 283.557 141.809L269.865 150.816C269.699 150.926 269.653 151.149 269.762 151.315C269.872 151.482 270.095 151.528 270.262 151.418Z" fill="#DB1F35"/>
<path d="M271.316 159.378L283.59 167.651C283.755 167.762 283.978 167.718 284.09 167.553C284.201 167.388 284.157 167.164 283.992 167.053L271.719 158.78C271.554 158.669 271.33 158.713 271.219 158.878C271.108 159.043 271.151 159.267 271.316 159.378Z" fill="#DB1F35"/>
<path d="M258.739 150.795L245.937 142.167C245.772 142.056 245.548 142.099 245.437 142.264C245.325 142.429 245.369 142.653 245.534 142.765L258.336 151.392C258.501 151.504 258.725 151.46 258.836 151.295C258.948 151.13 258.904 150.906 258.739 150.795Z" fill="#DB1F35"/>
<path d="M259.727 158.679L245.536 168.089C245.37 168.199 245.325 168.423 245.435 168.589C245.545 168.755 245.769 168.8 245.935 168.69L260.125 159.279C260.291 159.169 260.336 158.946 260.226 158.78C260.116 158.614 259.893 158.569 259.727 158.679Z" fill="#DB1F35"/>
<path fill-rule="evenodd" clip-rule="evenodd" d="M249.883 157.244H262.855V165.892H267.179V157.244H280.15V152.92H267.179V144.272H262.855V152.92H249.883V157.244Z" fill="url(#paint3_linear_348_1062)"/>
<defs>
<linearGradient id="paint0_linear_348_1062" x1="567.696" y1="144.272" x2="567.696" y2="468.568" gradientUnits="userSpaceOnUse">
<stop stop-color="white"/>
<stop offset="1" stop-color="#F0F0F0"/>
</linearGradient>
<linearGradient id="paint1_linear_348_1062" x1="567.693" y1="144.272" x2="567.693" y2="468.568" gradientUnits="userSpaceOnUse">
<stop stop-color="#0A17A7"/>
<stop offset="1" stop-color="#030E88"/>
</linearGradient>
<linearGradient id="paint2_linear_348_1062" x1="627.658" y1="142.2" x2="627.658" y2="528.645" gradientUnits="userSpaceOnUse">
<stop stop-color="white"/>
<stop offset="1" stop-color="#F0F0F0"/>
</linearGradient>
<linearGradient id="paint3_linear_348_1062" x1="567.693" y1="144.272" x2="567.693" y2="468.568" gradientUnits="userSpaceOnUse">
<stop stop-color="#E6273E"/>
<stop offset="1" stop-color="#CF152B"/>
</linearGradient>
<clipPath id="clip0_348_1062">
<rect width="36" height="27" fill="white" transform="translate(49.125 141.75)"/>
</clipPath>
<clipPath id="clip1_348_1062">
<rect width="36" height="27" fill="white" transform="translate(48.875 142)"/>
</clipPath>
<clipPath id="clip2_348_1062">
<rect width="36" height="27" fill="white" transform="translate(98.375 141.75)"/>
</clipPath>
<clipPath id="clip3_348_1062">
<rect width="30" height="22.5" fill="white" transform="translate(150.625 144)"/>
</clipPath>
<clipPath id="clip4_348_1062">
<rect width="36" height="27" fill="white" transform="translate(196.875 141.75)"/>
</clipPath>
</defs>
</svg>
