<svg width="634" height="357" viewBox="0 0 634 357" fill="none" xmlns="http://www.w3.org/2000/svg">
<path d="M0.630715 166.403C0.594696 166.607 0.730831 166.801 0.934782 166.837L4.25835 167.424C4.4623 167.46 4.65683 167.324 4.69285 167.12C4.72887 166.916 4.59274 166.722 4.38879 166.686L1.4345 166.164L1.95625 163.21C1.99227 163.006 1.85613 162.811 1.65218 162.775C1.44823 162.739 1.2537 162.875 1.21768 163.079L0.630715 166.403ZM220.332 155.221L220.09 154.935L220.332 155.221ZM486.204 85.4909L485.909 85.2588L486.204 85.4909ZM633.25 53.25L629.183 54.7369L632.504 57.5154L633.25 53.25ZM1.21501 166.775C2.26391 166.041 3.30417 165.319 4.33588 164.609L3.91069 163.991C2.87734 164.703 1.83547 165.426 0.784992 166.161L1.21501 166.775ZM13.3929 158.537C15.4679 157.184 17.5059 155.883 19.5078 154.631L19.1102 153.995C17.1042 155.249 15.0622 156.553 12.9833 157.909L13.3929 158.537ZM28.7913 149.033C30.976 147.766 33.1142 146.563 35.2071 145.422L34.8482 144.764C32.7492 145.908 30.6052 147.114 28.415 148.384L28.7913 149.033ZM44.781 140.477C47.0595 139.369 49.2792 138.34 51.4424 137.388L51.1403 136.702C48.968 137.658 46.7396 138.69 44.453 139.803L44.781 140.477ZM61.5435 133.342C63.9006 132.497 66.1826 131.752 68.3932 131.102L68.1816 130.382C65.9563 131.037 63.6604 131.786 61.2903 132.636L61.5435 133.342ZM78.968 128.597C81.4457 128.163 83.8208 127.863 86.1005 127.685L86.0422 126.938C83.7375 127.117 81.3386 127.421 78.8386 127.858L78.968 128.597ZM96.9256 127.788C99.4132 128.049 101.769 128.475 104.007 129.044L104.192 128.317C101.918 127.739 99.527 127.307 97.0039 127.042L96.9256 127.788ZM114.086 132.881C116.251 134.001 118.295 135.264 120.236 136.638L120.67 136.026C118.702 134.634 116.63 133.353 114.431 132.215L114.086 132.881ZM128.522 143.621C130.257 145.314 131.917 147.074 133.525 148.865L134.083 148.364C132.467 146.564 130.795 144.792 129.046 143.084L128.522 143.621ZM140.602 157.158C142.175 159.048 143.731 160.915 145.293 162.714L145.859 162.222C144.303 160.43 142.753 158.569 141.179 156.678L140.602 157.158ZM152.878 170.607C154.741 172.284 156.669 173.796 158.7 175.082L159.101 174.448C157.113 173.19 155.219 171.705 153.38 170.05L152.878 170.607ZM168.87 179.171C171.166 179.596 173.601 179.734 176.205 179.537L176.149 178.789C173.607 178.981 171.237 178.846 169.006 178.434L168.87 179.171ZM186.904 177.104C189.031 176.333 191.256 175.373 193.592 174.208L193.257 173.537C190.945 174.69 188.745 175.639 186.648 176.399L186.904 177.104ZM203.1 168.711C205.009 167.469 206.982 166.108 209.025 164.623L208.584 164.017C206.551 165.495 204.588 166.848 202.691 168.082L203.1 168.711ZM217.634 157.955C218.6 157.164 219.58 156.348 220.574 155.507L220.09 154.935C219.099 155.773 218.122 156.586 217.159 157.375L217.634 157.955ZM220.574 155.507C221.548 154.684 222.517 153.88 223.483 153.096L223.011 152.514C222.041 153.301 221.067 154.108 220.09 154.935L220.574 155.507ZM232.222 146.459C234.267 145.014 236.294 143.655 238.305 142.379L237.903 141.746C235.881 143.028 233.843 144.394 231.789 145.847L232.222 146.459ZM247.816 136.882C250.047 135.719 252.258 134.655 254.45 133.684L254.146 132.998C251.939 133.976 249.714 135.047 247.47 136.217L247.816 136.882ZM264.687 129.754C267.057 128.983 269.406 128.315 271.735 127.74L271.556 127.012C269.209 127.591 266.842 128.264 264.455 129.041L264.687 129.754ZM282.508 125.705C284.959 125.38 287.39 125.149 289.804 125.002L289.758 124.253C287.328 124.401 284.878 124.634 282.409 124.961L282.508 125.705ZM300.779 124.882C303.234 124.972 305.674 125.136 308.098 125.362L308.168 124.615C305.73 124.388 303.277 124.223 300.806 124.132L300.779 124.882ZM319.015 126.777C321.435 127.17 323.842 127.61 326.239 128.084L326.385 127.349C323.98 126.873 321.565 126.432 319.136 126.036L319.015 126.777ZM337.012 130.417C339.403 130.97 341.787 131.54 344.166 132.114L344.342 131.385C341.962 130.811 339.575 130.241 337.181 129.686L337.012 130.417ZM354.894 134.689C357.289 135.252 359.681 135.8 362.075 136.319L362.234 135.586C359.846 135.068 357.457 134.521 355.065 133.959L354.894 134.689ZM372.922 138.434C375.348 138.843 377.778 139.204 380.214 139.503L380.305 138.759C377.882 138.462 375.463 138.102 373.047 137.694L372.922 138.434ZM391.239 140.385C393.688 140.467 396.146 140.467 398.615 140.373L398.586 139.624C396.136 139.717 393.696 139.717 391.264 139.635L391.239 140.385ZM409.645 139.29C412.042 138.904 414.452 138.413 416.876 137.806L416.694 137.079C414.291 137.68 411.902 138.167 409.526 138.549L409.645 139.29ZM427.397 134.447C429.647 133.569 431.911 132.581 434.19 131.475L433.863 130.8C431.601 131.898 429.355 132.878 427.124 133.748L427.397 134.447ZM443.83 126.125C445.868 124.85 447.919 123.475 449.985 121.993L449.548 121.384C447.495 122.856 445.457 124.223 443.432 125.489L443.83 126.125ZM458.695 115.176C460.495 113.649 462.306 112.039 464.129 110.341L463.618 109.792C461.803 111.482 460.001 113.085 458.21 114.604L458.695 115.176ZM471.974 102.57C473.655 100.804 475.347 98.9624 477.05 97.0431L476.489 96.5454C474.792 98.4583 473.106 100.293 471.43 102.052L471.974 102.57ZM484.119 88.7C484.909 87.7247 485.703 86.7325 486.498 85.723L485.909 85.2588C485.116 86.2656 484.325 87.2551 483.536 88.2276L484.119 88.7ZM486.498 85.723C487.328 84.6696 488.181 83.6685 489.054 82.7175L488.502 82.2102C487.615 83.1753 486.751 84.1907 485.909 85.2588L486.498 85.723ZM497.946 75.1134C500.15 73.6571 502.44 72.4083 504.807 71.3424L504.499 70.6586C502.097 71.7402 499.771 73.0082 497.533 74.4878L497.946 75.1134ZM515.965 67.6882C518.492 67.1257 521.075 66.7039 523.705 66.3993L523.619 65.6543C520.966 65.9615 518.357 66.3874 515.802 66.9561L515.965 67.6882ZM535.488 65.7421C538.087 65.7305 540.713 65.7935 543.355 65.9108L543.388 65.1616C540.736 65.0438 538.098 64.9804 535.485 64.9921L535.488 65.7421ZM555.155 66.7222C557.775 66.9514 560.397 67.204 563.013 67.4609L563.086 66.7145C560.47 66.4575 557.845 66.2046 555.22 65.975L555.155 66.7222ZM574.809 68.589C577.458 68.8211 580.087 69.0267 582.683 69.1849L582.729 68.4363C580.141 68.2786 577.519 68.0735 574.874 67.8419L574.809 68.589ZM594.557 69.4989C597.249 69.4543 599.886 69.3146 602.456 69.0524L602.38 68.3063C599.835 68.566 597.219 68.7047 594.545 68.749L594.557 69.4989ZM614.141 66.7635C616.702 65.9679 619.156 64.9698 621.485 63.7319L621.133 63.0697C618.849 64.2834 616.439 65.2642 613.918 66.0473L614.141 66.7635ZM630.958 56.5253C631.093 56.3822 631.227 56.2377 631.361 56.0917L630.808 55.5854C630.677 55.7285 630.545 55.8701 630.413 56.0103L630.958 56.5253Z" fill="#372616"/>
<path d="M0.630715 217.403C0.594696 217.607 0.730831 217.801 0.934782 217.837L4.25835 218.424C4.4623 218.46 4.65683 218.324 4.69285 218.12C4.72887 217.916 4.59274 217.722 4.38879 217.686L1.4345 217.164L1.95625 214.21C1.99227 214.006 1.85613 213.811 1.65218 213.775C1.44823 213.739 1.2537 213.875 1.21768 214.079L0.630715 217.403ZM220.332 206.221L220.09 205.935L220.332 206.221ZM486.204 136.491L485.909 136.259L486.204 136.491ZM633.25 104.25L629.183 105.737L632.504 108.515L633.25 104.25ZM1.21501 217.775C2.26391 217.041 3.30417 216.319 4.33588 215.609L3.91069 214.991C2.87734 215.703 1.83547 216.426 0.784992 217.161L1.21501 217.775ZM13.3929 209.537C15.4679 208.184 17.5059 206.883 19.5078 205.631L19.1102 204.995C17.1042 206.249 15.0622 207.553 12.9833 208.909L13.3929 209.537ZM28.7913 200.033C30.976 198.766 33.1142 197.563 35.2071 196.422L34.8482 195.764C32.7492 196.908 30.6052 198.114 28.415 199.384L28.7913 200.033ZM44.781 191.477C47.0595 190.369 49.2792 189.34 51.4424 188.388L51.1403 187.702C48.968 188.658 46.7396 189.69 44.453 190.803L44.781 191.477ZM61.5435 184.342C63.9006 183.497 66.1826 182.752 68.3932 182.102L68.1816 181.382C65.9563 182.037 63.6604 182.786 61.2903 183.636L61.5435 184.342ZM78.968 179.597C81.4457 179.163 83.8208 178.863 86.1005 178.685L86.0422 177.938C83.7375 178.117 81.3386 178.421 78.8386 178.858L78.968 179.597ZM96.9256 178.788C99.4132 179.049 101.769 179.475 104.007 180.044L104.192 179.317C101.918 178.739 99.527 178.307 97.0039 178.042L96.9256 178.788ZM114.086 183.881C116.251 185.001 118.295 186.264 120.236 187.638L120.67 187.026C118.702 185.634 116.63 184.353 114.431 183.215L114.086 183.881ZM128.522 194.621C130.257 196.314 131.917 198.074 133.525 199.865L134.083 199.364C132.467 197.564 130.795 195.792 129.046 194.084L128.522 194.621ZM140.602 208.158C142.175 210.048 143.731 211.915 145.293 213.714L145.859 213.222C144.303 211.43 142.753 209.569 141.179 207.678L140.602 208.158ZM152.878 221.607C154.741 223.284 156.669 224.796 158.7 226.082L159.101 225.448C157.113 224.19 155.219 222.705 153.38 221.05L152.878 221.607ZM168.87 230.171C171.166 230.596 173.601 230.734 176.205 230.537L176.149 229.789C173.607 229.981 171.237 229.846 169.006 229.434L168.87 230.171ZM186.904 228.104C189.031 227.333 191.256 226.373 193.592 225.208L193.257 224.537C190.945 225.69 188.745 226.639 186.648 227.399L186.904 228.104ZM203.1 219.711C205.009 218.469 206.982 217.108 209.025 215.623L208.584 215.017C206.551 216.495 204.588 217.848 202.691 219.082L203.1 219.711ZM217.634 208.955C218.6 208.164 219.58 207.348 220.574 206.507L220.09 205.935C219.099 206.773 218.122 207.586 217.159 208.375L217.634 208.955ZM220.574 206.507C221.548 205.684 222.517 204.88 223.483 204.096L223.011 203.514C222.041 204.301 221.067 205.108 220.09 205.935L220.574 206.507ZM232.222 197.459C234.267 196.014 236.294 194.655 238.305 193.379L237.903 192.746C235.881 194.028 233.843 195.394 231.789 196.847L232.222 197.459ZM247.816 187.882C250.047 186.719 252.258 185.655 254.45 184.684L254.146 183.998C251.939 184.976 249.714 186.047 247.47 187.217L247.816 187.882ZM264.687 180.754C267.057 179.983 269.406 179.315 271.735 178.74L271.556 178.012C269.209 178.591 266.842 179.264 264.455 180.041L264.687 180.754ZM282.508 176.705C284.959 176.38 287.39 176.149 289.804 176.002L289.758 175.253C287.328 175.401 284.878 175.634 282.409 175.961L282.508 176.705ZM300.779 175.882C303.234 175.972 305.674 176.136 308.098 176.362L308.168 175.615C305.73 175.388 303.277 175.223 300.806 175.132L300.779 175.882ZM319.015 177.777C321.435 178.17 323.842 178.61 326.239 179.084L326.385 178.349C323.98 177.873 321.565 177.432 319.136 177.036L319.015 177.777ZM337.012 181.417C339.403 181.97 341.787 182.54 344.166 183.114L344.342 182.385C341.962 181.811 339.575 181.241 337.181 180.686L337.012 181.417ZM354.894 185.689C357.289 186.252 359.681 186.8 362.075 187.319L362.234 186.586C359.846 186.068 357.457 185.521 355.065 184.959L354.894 185.689ZM372.922 189.434C375.348 189.843 377.778 190.204 380.214 190.503L380.305 189.759C377.882 189.462 375.463 189.102 373.047 188.694L372.922 189.434ZM391.239 191.385C393.688 191.467 396.146 191.467 398.615 191.373L398.586 190.624C396.136 190.717 393.696 190.717 391.264 190.635L391.239 191.385ZM409.645 190.29C412.042 189.904 414.452 189.413 416.876 188.806L416.694 188.079C414.291 188.68 411.902 189.167 409.526 189.549L409.645 190.29ZM427.397 185.447C429.647 184.569 431.911 183.581 434.19 182.475L433.863 181.8C431.601 182.898 429.355 183.878 427.124 184.748L427.397 185.447ZM443.83 177.125C445.868 175.85 447.919 174.475 449.985 172.993L449.548 172.384C447.495 173.856 445.457 175.223 443.432 176.489L443.83 177.125ZM458.695 166.176C460.495 164.649 462.306 163.039 464.129 161.341L463.618 160.792C461.803 162.482 460.001 164.085 458.21 165.604L458.695 166.176ZM471.974 153.57C473.655 151.804 475.347 149.962 477.05 148.043L476.489 147.545C474.792 149.458 473.106 151.293 471.43 153.052L471.974 153.57ZM484.119 139.7C484.909 138.725 485.703 137.733 486.498 136.723L485.909 136.259C485.116 137.266 484.325 138.255 483.536 139.228L484.119 139.7ZM486.498 136.723C487.328 135.67 488.181 134.669 489.054 133.718L488.502 133.21C487.615 134.175 486.751 135.191 485.909 136.259L486.498 136.723ZM497.946 126.113C500.15 124.657 502.44 123.408 504.807 122.342L504.499 121.659C502.097 122.74 499.771 124.008 497.533 125.488L497.946 126.113ZM515.965 118.688C518.492 118.126 521.075 117.704 523.705 117.399L523.619 116.654C520.966 116.962 518.357 117.387 515.802 117.956L515.965 118.688ZM535.488 116.742C538.087 116.73 540.713 116.793 543.355 116.911L543.388 116.162C540.736 116.044 538.098 115.98 535.485 115.992L535.488 116.742ZM555.155 117.722C557.775 117.951 560.397 118.204 563.013 118.461L563.086 117.714C560.47 117.458 557.845 117.205 555.22 116.975L555.155 117.722ZM574.809 119.589C577.458 119.821 580.087 120.027 582.683 120.185L582.729 119.436C580.141 119.279 577.519 119.074 574.874 118.842L574.809 119.589ZM594.557 120.499C597.249 120.454 599.886 120.315 602.456 120.052L602.38 119.306C599.835 119.566 597.219 119.705 594.545 119.749L594.557 120.499ZM614.141 117.764C616.702 116.968 619.156 115.97 621.485 114.732L621.133 114.07C618.849 115.283 616.439 116.264 613.918 117.047L614.141 117.764ZM630.958 107.525C631.093 107.382 631.227 107.238 631.361 107.092L630.808 106.585C630.677 106.728 630.545 106.87 630.413 107.01L630.958 107.525Z" fill="#372616"/>
<path d="M0.630715 280.403C0.594696 280.607 0.730831 280.801 0.934782 280.837L4.25835 281.424C4.4623 281.46 4.65683 281.324 4.69285 281.12C4.72887 280.916 4.59274 280.722 4.38879 280.686L1.4345 280.164L1.95625 277.21C1.99227 277.006 1.85613 276.811 1.65218 276.775C1.44823 276.739 1.2537 276.875 1.21768 277.079L0.630715 280.403ZM220.332 269.221L220.09 268.935L220.332 269.221ZM486.204 199.491L485.909 199.259L486.204 199.491ZM633.25 167.25L629.183 168.737L632.504 171.515L633.25 167.25ZM1.21501 280.775C2.26391 280.041 3.30417 279.319 4.33588 278.609L3.91069 277.991C2.87734 278.703 1.83547 279.426 0.784992 280.161L1.21501 280.775ZM13.3929 272.537C15.4679 271.184 17.5059 269.883 19.5078 268.631L19.1102 267.995C17.1042 269.249 15.0622 270.553 12.9833 271.909L13.3929 272.537ZM28.7913 263.033C30.976 261.766 33.1142 260.563 35.2071 259.422L34.8482 258.764C32.7492 259.908 30.6052 261.114 28.415 262.384L28.7913 263.033ZM44.781 254.477C47.0595 253.369 49.2792 252.34 51.4424 251.388L51.1403 250.702C48.968 251.658 46.7396 252.69 44.453 253.803L44.781 254.477ZM61.5435 247.342C63.9006 246.497 66.1826 245.752 68.3932 245.102L68.1816 244.382C65.9563 245.037 63.6604 245.786 61.2903 246.636L61.5435 247.342ZM78.968 242.597C81.4457 242.163 83.8208 241.863 86.1005 241.685L86.0422 240.938C83.7375 241.117 81.3386 241.421 78.8386 241.858L78.968 242.597ZM96.9256 241.788C99.4132 242.049 101.769 242.475 104.007 243.044L104.192 242.317C101.918 241.739 99.527 241.307 97.0039 241.042L96.9256 241.788ZM114.086 246.881C116.251 248.001 118.295 249.264 120.236 250.638L120.67 250.026C118.702 248.634 116.63 247.353 114.431 246.215L114.086 246.881ZM128.522 257.621C130.257 259.314 131.917 261.074 133.525 262.865L134.083 262.364C132.467 260.564 130.795 258.792 129.046 257.084L128.522 257.621ZM140.602 271.158C142.175 273.048 143.731 274.915 145.293 276.714L145.859 276.222C144.303 274.43 142.753 272.569 141.179 270.678L140.602 271.158ZM152.878 284.607C154.741 286.284 156.669 287.796 158.7 289.082L159.101 288.448C157.113 287.19 155.219 285.705 153.38 284.05L152.878 284.607ZM168.87 293.171C171.166 293.596 173.601 293.734 176.205 293.537L176.149 292.789C173.607 292.981 171.237 292.846 169.006 292.434L168.87 293.171ZM186.904 291.104C189.031 290.333 191.256 289.373 193.592 288.208L193.257 287.537C190.945 288.69 188.745 289.639 186.648 290.399L186.904 291.104ZM203.1 282.711C205.009 281.469 206.982 280.108 209.025 278.623L208.584 278.017C206.551 279.495 204.588 280.848 202.691 282.082L203.1 282.711ZM217.634 271.955C218.6 271.164 219.58 270.348 220.574 269.507L220.09 268.935C219.099 269.773 218.122 270.586 217.159 271.375L217.634 271.955ZM220.574 269.507C221.548 268.684 222.517 267.88 223.483 267.096L223.011 266.514C222.041 267.301 221.067 268.108 220.09 268.935L220.574 269.507ZM232.222 260.459C234.267 259.014 236.294 257.655 238.305 256.379L237.903 255.746C235.881 257.028 233.843 258.394 231.789 259.847L232.222 260.459ZM247.816 250.882C250.047 249.719 252.258 248.655 254.45 247.684L254.146 246.998C251.939 247.976 249.714 249.047 247.47 250.217L247.816 250.882ZM264.687 243.754C267.057 242.983 269.406 242.315 271.735 241.74L271.556 241.012C269.209 241.591 266.842 242.264 264.455 243.041L264.687 243.754ZM282.508 239.705C284.959 239.38 287.39 239.149 289.804 239.002L289.758 238.253C287.328 238.401 284.878 238.634 282.409 238.961L282.508 239.705ZM300.779 238.882C303.234 238.972 305.674 239.136 308.098 239.362L308.168 238.615C305.73 238.388 303.277 238.223 300.806 238.132L300.779 238.882ZM319.015 240.777C321.435 241.17 323.842 241.61 326.239 242.084L326.385 241.349C323.98 240.873 321.565 240.432 319.136 240.036L319.015 240.777ZM337.012 244.417C339.403 244.97 341.787 245.54 344.166 246.114L344.342 245.385C341.962 244.811 339.575 244.241 337.181 243.686L337.012 244.417ZM354.894 248.689C357.289 249.252 359.681 249.8 362.075 250.319L362.234 249.586C359.846 249.068 357.457 248.521 355.065 247.959L354.894 248.689ZM372.922 252.434C375.348 252.843 377.778 253.204 380.214 253.503L380.305 252.759C377.882 252.462 375.463 252.102 373.047 251.694L372.922 252.434ZM391.239 254.385C393.688 254.467 396.146 254.467 398.615 254.373L398.586 253.624C396.136 253.717 393.696 253.717 391.264 253.635L391.239 254.385ZM409.645 253.29C412.042 252.904 414.452 252.413 416.876 251.806L416.694 251.079C414.291 251.68 411.902 252.167 409.526 252.549L409.645 253.29ZM427.397 248.447C429.647 247.569 431.911 246.581 434.19 245.475L433.863 244.8C431.601 245.898 429.355 246.878 427.124 247.748L427.397 248.447ZM443.83 240.125C445.868 238.85 447.919 237.475 449.985 235.993L449.548 235.384C447.495 236.856 445.457 238.223 443.432 239.489L443.83 240.125ZM458.695 229.176C460.495 227.649 462.306 226.039 464.129 224.341L463.618 223.792C461.803 225.482 460.001 227.085 458.21 228.604L458.695 229.176ZM471.974 216.57C473.655 214.804 475.347 212.962 477.05 211.043L476.489 210.545C474.792 212.458 473.106 214.293 471.43 216.052L471.974 216.57ZM484.119 202.7C484.909 201.725 485.703 200.733 486.498 199.723L485.909 199.259C485.116 200.266 484.325 201.255 483.536 202.228L484.119 202.7ZM486.498 199.723C487.328 198.67 488.181 197.669 489.054 196.718L488.502 196.21C487.615 197.175 486.751 198.191 485.909 199.259L486.498 199.723ZM497.946 189.113C500.15 187.657 502.44 186.408 504.807 185.342L504.499 184.659C502.097 185.74 499.771 187.008 497.533 188.488L497.946 189.113ZM515.965 181.688C518.492 181.126 521.075 180.704 523.705 180.399L523.619 179.654C520.966 179.962 518.357 180.387 515.802 180.956L515.965 181.688ZM535.488 179.742C538.087 179.73 540.713 179.793 543.355 179.911L543.388 179.162C540.736 179.044 538.098 178.98 535.485 178.992L535.488 179.742ZM555.155 180.722C557.775 180.951 560.397 181.204 563.013 181.461L563.086 180.714C560.47 180.458 557.845 180.205 555.22 179.975L555.155 180.722ZM574.809 182.589C577.458 182.821 580.087 183.027 582.683 183.185L582.729 182.436C580.141 182.279 577.519 182.074 574.874 181.842L574.809 182.589ZM594.557 183.499C597.249 183.454 599.886 183.315 602.456 183.052L602.38 182.306C599.835 182.566 597.219 182.705 594.545 182.749L594.557 183.499ZM614.141 180.764C616.702 179.968 619.156 178.97 621.485 177.732L621.133 177.07C618.849 178.283 616.439 179.264 613.918 180.047L614.141 180.764ZM630.958 170.525C631.093 170.382 631.227 170.238 631.361 170.092L630.808 169.585C630.677 169.728 630.545 169.87 630.413 170.01L630.958 170.525Z" fill="#372616"/>
<path d="M0.630715 346.403C0.594696 346.607 0.730831 346.801 0.934782 346.837L4.25835 347.424C4.4623 347.46 4.65683 347.324 4.69285 347.12C4.72887 346.916 4.59274 346.722 4.38879 346.686L1.4345 346.164L1.95625 343.21C1.99227 343.006 1.85613 342.811 1.65218 342.775C1.44823 342.739 1.2537 342.875 1.21768 343.079L0.630715 346.403ZM220.332 335.221L220.09 334.935L220.332 335.221ZM486.204 265.491L485.909 265.259L486.204 265.491ZM633.25 233.25L629.183 234.737L632.504 237.515L633.25 233.25ZM1.21501 346.775C2.26391 346.041 3.30417 345.319 4.33588 344.609L3.91069 343.991C2.87734 344.703 1.83547 345.426 0.784992 346.161L1.21501 346.775ZM13.3929 338.537C15.4679 337.184 17.5059 335.883 19.5078 334.631L19.1102 333.995C17.1042 335.249 15.0622 336.553 12.9833 337.909L13.3929 338.537ZM28.7913 329.033C30.976 327.766 33.1142 326.563 35.2071 325.422L34.8482 324.764C32.7492 325.908 30.6052 327.114 28.415 328.384L28.7913 329.033ZM44.781 320.477C47.0595 319.369 49.2792 318.34 51.4424 317.388L51.1403 316.702C48.968 317.658 46.7396 318.69 44.453 319.803L44.781 320.477ZM61.5435 313.342C63.9006 312.497 66.1826 311.752 68.3932 311.102L68.1816 310.382C65.9563 311.037 63.6604 311.786 61.2903 312.636L61.5435 313.342ZM78.968 308.597C81.4457 308.163 83.8208 307.863 86.1005 307.685L86.0422 306.938C83.7375 307.117 81.3386 307.421 78.8386 307.858L78.968 308.597ZM96.9256 307.788C99.4132 308.049 101.769 308.475 104.007 309.044L104.192 308.317C101.918 307.739 99.527 307.307 97.0039 307.042L96.9256 307.788ZM114.086 312.881C116.251 314.001 118.295 315.264 120.236 316.638L120.67 316.026C118.702 314.634 116.63 313.353 114.431 312.215L114.086 312.881ZM128.522 323.621C130.257 325.314 131.917 327.074 133.525 328.865L134.083 328.364C132.467 326.564 130.795 324.792 129.046 323.084L128.522 323.621ZM140.602 337.158C142.175 339.048 143.731 340.915 145.293 342.714L145.859 342.222C144.303 340.43 142.753 338.569 141.179 336.678L140.602 337.158ZM152.878 350.607C154.741 352.284 156.669 353.796 158.7 355.082L159.101 354.448C157.113 353.19 155.219 351.705 153.38 350.05L152.878 350.607ZM168.87 359.171C171.166 359.596 173.601 359.734 176.205 359.537L176.149 358.789C173.607 358.981 171.237 358.846 169.006 358.434L168.87 359.171ZM186.904 357.104C189.031 356.333 191.256 355.373 193.592 354.208L193.257 353.537C190.945 354.69 188.745 355.639 186.648 356.399L186.904 357.104ZM203.1 348.711C205.009 347.469 206.982 346.108 209.025 344.623L208.584 344.017C206.551 345.495 204.588 346.848 202.691 348.082L203.1 348.711ZM217.634 337.955C218.6 337.164 219.58 336.348 220.574 335.507L220.09 334.935C219.099 335.773 218.122 336.586 217.159 337.375L217.634 337.955ZM220.574 335.507C221.548 334.684 222.517 333.88 223.483 333.096L223.011 332.514C222.041 333.301 221.067 334.108 220.09 334.935L220.574 335.507ZM232.222 326.459C234.267 325.014 236.294 323.655 238.305 322.379L237.903 321.746C235.881 323.028 233.843 324.394 231.789 325.847L232.222 326.459ZM247.816 316.882C250.047 315.719 252.258 314.655 254.45 313.684L254.146 312.998C251.939 313.976 249.714 315.047 247.47 316.217L247.816 316.882ZM264.687 309.754C267.057 308.983 269.406 308.315 271.735 307.74L271.556 307.012C269.209 307.591 266.842 308.264 264.455 309.041L264.687 309.754ZM282.508 305.705C284.959 305.38 287.39 305.149 289.804 305.002L289.758 304.253C287.328 304.401 284.878 304.634 282.409 304.961L282.508 305.705ZM300.779 304.882C303.234 304.972 305.674 305.136 308.098 305.362L308.168 304.615C305.73 304.388 303.277 304.223 300.806 304.132L300.779 304.882ZM319.015 306.777C321.435 307.17 323.842 307.61 326.239 308.084L326.385 307.349C323.98 306.873 321.565 306.432 319.136 306.036L319.015 306.777ZM337.012 310.417C339.403 310.97 341.787 311.54 344.166 312.114L344.342 311.385C341.962 310.811 339.575 310.241 337.181 309.686L337.012 310.417ZM354.894 314.689C357.289 315.252 359.681 315.8 362.075 316.319L362.234 315.586C359.846 315.068 357.457 314.521 355.065 313.959L354.894 314.689ZM372.922 318.434C375.348 318.843 377.778 319.204 380.214 319.503L380.305 318.759C377.882 318.462 375.463 318.102 373.047 317.694L372.922 318.434ZM391.239 320.385C393.688 320.467 396.146 320.467 398.615 320.373L398.586 319.624C396.136 319.717 393.696 319.717 391.264 319.635L391.239 320.385ZM409.645 319.29C412.042 318.904 414.452 318.413 416.876 317.806L416.694 317.079C414.291 317.68 411.902 318.167 409.526 318.549L409.645 319.29ZM427.397 314.447C429.647 313.569 431.911 312.581 434.19 311.475L433.863 310.8C431.601 311.898 429.355 312.878 427.124 313.748L427.397 314.447ZM443.83 306.125C445.868 304.85 447.919 303.475 449.985 301.993L449.548 301.384C447.495 302.856 445.457 304.223 443.432 305.489L443.83 306.125ZM458.695 295.176C460.495 293.649 462.306 292.039 464.129 290.341L463.618 289.792C461.803 291.482 460.001 293.085 458.21 294.604L458.695 295.176ZM471.974 282.57C473.655 280.804 475.347 278.962 477.05 277.043L476.489 276.545C474.792 278.458 473.106 280.293 471.43 282.052L471.974 282.57ZM484.119 268.7C484.909 267.725 485.703 266.733 486.498 265.723L485.909 265.259C485.116 266.266 484.325 267.255 483.536 268.228L484.119 268.7ZM486.498 265.723C487.328 264.67 488.181 263.669 489.054 262.718L488.502 262.21C487.615 263.175 486.751 264.191 485.909 265.259L486.498 265.723ZM497.946 255.113C500.15 253.657 502.44 252.408 504.807 251.342L504.499 250.659C502.097 251.74 499.771 253.008 497.533 254.488L497.946 255.113ZM515.965 247.688C518.492 247.126 521.075 246.704 523.705 246.399L523.619 245.654C520.966 245.962 518.357 246.387 515.802 246.956L515.965 247.688ZM535.488 245.742C538.087 245.73 540.713 245.793 543.355 245.911L543.388 245.162C540.736 245.044 538.098 244.98 535.485 244.992L535.488 245.742ZM555.155 246.722C557.775 246.951 560.397 247.204 563.013 247.461L563.086 246.714C560.47 246.458 557.845 246.205 555.22 245.975L555.155 246.722ZM574.809 248.589C577.458 248.821 580.087 249.027 582.683 249.185L582.729 248.436C580.141 248.279 577.519 248.074 574.874 247.842L574.809 248.589ZM594.557 249.499C597.249 249.454 599.886 249.315 602.456 249.052L602.38 248.306C599.835 248.566 597.219 248.705 594.545 248.749L594.557 249.499ZM614.141 246.764C616.702 245.968 619.156 244.97 621.485 243.732L621.133 243.07C618.849 244.283 616.439 245.264 613.918 246.047L614.141 246.764ZM630.958 236.525C631.093 236.382 631.227 236.238 631.361 236.092L630.808 235.585C630.677 235.728 630.545 235.87 630.413 236.01L630.958 236.525Z" fill="#372616"/>
<path d="M0.630715 113.153C0.594696 113.357 0.730831 113.551 0.934782 113.587L4.25835 114.174C4.4623 114.21 4.65683 114.074 4.69285 113.87C4.72887 113.666 4.59274 113.472 4.38879 113.436L1.4345 112.914L1.95625 109.96C1.99227 109.756 1.85613 109.561 1.65218 109.525C1.44823 109.489 1.2537 109.625 1.21768 109.829L0.630715 113.153ZM220.332 101.971L220.09 101.685L220.332 101.971ZM486.204 32.2409L485.909 32.0088L486.204 32.2409ZM633.25 0L629.183 1.4869L632.504 4.26543L633.25 0ZM1.21501 113.525C2.26391 112.791 3.30417 112.069 4.33588 111.359L3.91069 110.741C2.87734 111.453 1.83547 112.176 0.784992 112.911L1.21501 113.525ZM13.3929 105.287C15.4679 103.934 17.5059 102.633 19.5078 101.381L19.1102 100.745C17.1042 101.999 15.0622 103.303 12.9833 104.659L13.3929 105.287ZM28.7913 95.7829C30.976 94.5159 33.1142 93.3129 35.2071 92.172L34.8482 91.5135C32.7492 92.6577 30.6052 93.8639 28.415 95.1341L28.7913 95.7829ZM44.781 87.227C47.0595 86.1186 49.2792 85.0901 51.4424 84.1382L51.1403 83.4517C48.968 84.4076 46.7396 85.4401 44.453 86.5525L44.781 87.227ZM61.5435 80.092C63.9006 79.2467 66.1826 78.5017 68.3932 77.8516L68.1816 77.132C65.9563 77.7865 63.6604 78.536 61.2903 79.386L61.5435 80.092ZM78.968 75.3472C81.4457 74.9133 83.8208 74.613 86.1005 74.4354L86.0422 73.6876C83.7375 73.8672 81.3386 74.1706 78.8386 74.6085L78.968 75.3472ZM96.9256 74.538C99.4132 74.7991 101.769 75.2251 104.007 75.7943L104.192 75.0674C101.918 74.4892 99.527 74.0569 97.0039 73.7921L96.9256 74.538ZM114.086 79.6308C116.251 80.7514 118.295 82.0143 120.236 83.388L120.67 82.7757C118.702 81.3839 116.63 80.1026 114.431 78.9648L114.086 79.6308ZM128.522 90.3706C130.257 92.0641 131.917 93.8238 133.525 95.6151L134.083 95.1141C132.467 93.3138 130.795 91.5416 129.046 89.8339L128.522 90.3706ZM140.602 103.908C142.175 105.798 143.731 107.665 145.293 109.464L145.859 108.972C144.303 107.18 142.753 105.319 141.179 103.428L140.602 103.908ZM152.878 117.357C154.741 119.034 156.669 120.546 158.7 121.832L159.101 121.198C157.113 119.94 155.219 118.455 153.38 116.8L152.878 117.357ZM168.87 125.921C171.166 126.346 173.601 126.484 176.205 126.287L176.149 125.539C173.607 125.731 171.237 125.596 169.006 125.184L168.87 125.921ZM186.904 123.854C189.031 123.083 191.256 122.123 193.592 120.958L193.257 120.287C190.945 121.44 188.745 122.389 186.648 123.149L186.904 123.854ZM203.1 115.461C205.009 114.219 206.982 112.858 209.025 111.373L208.584 110.767C206.551 112.245 204.588 113.598 202.691 114.832L203.1 115.461ZM217.634 104.705C218.6 103.914 219.58 103.098 220.574 102.257L220.09 101.685C219.099 102.523 218.122 103.336 217.159 104.125L217.634 104.705ZM220.574 102.257C221.548 101.434 222.517 100.63 223.483 99.8461L223.011 99.2638C222.041 100.051 221.067 100.858 220.09 101.685L220.574 102.257ZM232.222 93.2094C234.267 91.7636 236.294 90.4048 238.305 89.1288L237.903 88.4955C235.881 89.7784 233.843 91.1442 231.789 92.5971L232.222 93.2094ZM247.816 83.6322C250.047 82.4694 252.258 81.4052 254.45 80.4336L254.146 79.7479C251.939 80.726 249.714 81.7971 247.47 82.9672L247.816 83.6322ZM264.687 76.504C267.057 75.7334 269.406 75.0649 271.735 74.4903L271.556 73.7621C269.209 74.341 266.842 75.0145 264.455 75.7908L264.687 76.504ZM282.508 72.4548C284.959 72.1296 287.39 71.8987 289.804 71.7518L289.758 71.0032C287.328 71.1511 284.878 71.3837 282.409 71.7113L282.508 72.4548ZM300.779 71.6317C303.234 71.7217 305.674 71.8856 308.098 72.1117L308.168 71.3649C305.73 71.1376 303.277 70.9728 300.806 70.8822L300.779 71.6317ZM319.015 73.5265C321.435 73.9204 323.842 74.3603 326.239 74.8343L326.385 74.0986C323.98 73.6232 321.565 73.1816 319.136 72.7863L319.015 73.5265ZM337.012 77.1668C339.403 77.7205 341.787 78.2902 344.166 78.8638L344.342 78.1347C341.962 77.5609 339.575 76.9906 337.181 76.4361L337.012 77.1668ZM354.894 81.4394C357.289 82.0021 359.681 82.5495 362.075 83.0688L362.234 82.3358C359.846 81.8177 357.457 81.2713 355.065 80.7093L354.894 81.4394ZM372.922 85.1838C375.348 85.5935 377.778 85.9544 380.214 86.2533L380.305 85.5089C377.882 85.2115 375.463 84.8523 373.047 84.4443L372.922 85.1838ZM391.239 87.135C393.688 87.217 396.146 87.2174 398.615 87.123L398.586 86.3735C396.136 86.4672 393.696 86.4668 391.264 86.3854L391.239 87.135ZM409.645 86.0398C412.042 85.6538 414.452 85.1631 416.876 84.5562L416.694 83.8287C414.291 84.4302 411.902 84.9166 409.526 85.2994L409.645 86.0398ZM427.397 81.1968C429.647 80.3191 431.911 79.3314 434.19 78.2251L433.863 77.5504C431.601 78.6481 429.355 79.6277 427.124 80.4981L427.397 81.1968ZM443.83 72.8749C445.868 71.6 447.919 70.2248 449.985 68.7435L449.548 68.134C447.495 69.6064 445.457 70.9728 443.432 72.239L443.83 72.8749ZM458.695 61.9259C460.495 60.3989 462.306 58.7885 464.129 57.0913L463.618 56.5424C461.803 58.2321 460.001 59.8347 458.21 61.354L458.695 61.9259ZM471.974 49.3195C473.655 47.5537 475.347 45.7124 477.05 43.7931L476.489 43.2954C474.792 45.2083 473.106 47.0431 471.43 48.8024L471.974 49.3195ZM484.119 35.45C484.909 34.4747 485.703 33.4825 486.498 32.473L485.909 32.0088C485.116 33.0156 484.325 34.0051 483.536 34.9776L484.119 35.45ZM486.498 32.473C487.328 31.4196 488.181 30.4185 489.054 29.4675L488.502 28.9602C487.615 29.9253 486.751 30.9407 485.909 32.0088L486.498 32.473ZM497.946 21.8634C500.15 20.4071 502.44 19.1583 504.807 18.0924L504.499 17.4086C502.097 18.4902 499.771 19.7582 497.533 21.2378L497.946 21.8634ZM515.965 14.4382C518.492 13.8757 521.075 13.4539 523.705 13.1493L523.619 12.4043C520.966 12.7115 518.357 13.1374 515.802 13.7061L515.965 14.4382ZM535.488 12.4921C538.087 12.4805 540.713 12.5435 543.355 12.6608L543.388 11.9116C540.736 11.7938 538.098 11.7304 535.485 11.7421L535.488 12.4921ZM555.155 13.4722C557.775 13.7014 560.397 13.954 563.013 14.2109L563.086 13.4645C560.47 13.2075 557.845 12.9546 555.22 12.725L555.155 13.4722ZM574.809 15.339C577.458 15.5711 580.087 15.7767 582.683 15.9349L582.729 15.1863C580.141 15.0286 577.519 14.8235 574.874 14.5919L574.809 15.339ZM594.557 16.2489C597.249 16.2043 599.886 16.0646 602.456 15.8024L602.38 15.0563C599.835 15.316 597.219 15.4547 594.545 15.499L594.557 16.2489ZM614.141 13.5135C616.702 12.7179 619.156 11.7198 621.485 10.4819L621.133 9.81966C618.849 11.0334 616.439 12.0142 613.918 12.7973L614.141 13.5135ZM630.958 3.27533C631.093 3.13225 631.227 2.98771 631.361 2.84171L630.808 2.33538C630.677 2.47848 630.545 2.62012 630.413 2.76033L630.958 3.27533Z" fill="#372616"/>
</svg>
